<svg width="14" height="15" viewBox="0 0 14 15" fill="none" xmlns="http://www.w3.org/2000/svg">
<path d="M1.06281 9.03119C1.37531 9.34369 1.84406 9.31244 2.15656 9.03119L5.75031 5.24994V14.2499C5.75031 14.6562 6.06281 14.9999 6.50031 14.9999H7.50031C7.90656 14.9999 8.25031 14.6562 8.25031 14.2499V5.24994L11.8128 9.03119C12.1253 9.31244 12.5941 9.34369 12.9066 9.03119L13.5941 8.34369C13.8753 8.06244 13.8753 7.56244 13.5941 7.28119L7.50031 1.21869C7.21906 0.906189 6.75031 0.906189 6.46906 1.21869L0.375306 7.28119C0.0940561 7.56244 0.0940561 8.03119 0.375306 8.34369L1.06281 9.03119Z" fill="#1576D8"/>
</svg>
