<svg width="15" height="14" viewBox="0 0 15 14" fill="none" xmlns="http://www.w3.org/2000/svg">
<path d="M8.34827 12.9064C8.66077 12.5939 8.62952 12.1252 8.34827 11.8127L4.56702 8.25018L13.5358 8.25018C13.9733 8.25018 14.2858 7.90643 14.2858 7.50018V6.50018C14.2858 6.06268 13.9733 5.75018 13.5358 5.75018L4.56702 5.75018L8.34827 2.15643C8.62952 1.84393 8.62952 1.37518 8.34827 1.06268L7.66077 0.375184C7.34827 0.0939341 6.87952 0.0939341 6.59827 0.375184L0.504517 6.46893C0.223267 6.75018 0.223267 7.21893 0.504517 7.53143L6.59827 13.5939C6.87952 13.8752 7.34827 13.8752 7.66077 13.5939L8.34827 12.9064Z" fill="white"/>
</svg>
